/* XPM */
static char *e9032f1d618748cd8d5b4b146a7f1702[] = {
/* columns rows colors chars-per-pixel */
"32 32 127 2 ",
"   c #060403",
".  c #0B0502",
"X  c #0C0906",
"o  c #090708",
"O  c #0D0B0A",
"+  c #120602",
"@  c #130A06",
"#  c #190E06",
"$  c #130D0A",
"%  c #190F0B",
"&  c #16110E",
"*  c #1A120D",
"=  c #161311",
"-  c #1A1512",
";  c #1D1916",
":  c #1F1B19",
">  c #220C01",
",  c #271106",
"<  c #22130C",
"1  c #2A170C",
"2  c #2C180F",
"3  c #331A0E",
"4  c #221914",
"5  c #2B1C14",
"6  c #241E1A",
"7  c #2A1E1A",
"8  c #26201D",
"9  c #2B221D",
"0  c #382016",
"q  c #33231B",
"w  c #3F271B",
"e  c #32281F",
"r  c #3A291E",
"t  c #272320",
"y  c #2D2521",
"u  c #2F2A26",
"i  c #332623",
"p  c #392723",
"a  c #342A25",
"s  c #3B2B24",
"d  c #352D29",
"f  c #3A2E29",
"g  c #3A3027",
"h  c #36312D",
"j  c #3D322C",
"k  c #3E3631",
"l  c #412416",
"z  c #41261A",
"x  c #42291C",
"c  c #482B1B",
"v  c #432F25",
"b  c #443126",
"n  c #4D3224",
"m  c #43342D",
"M  c #49372D",
"N  c #44382E",
"B  c #4C3A2D",
"V  c #553C2D",
"C  c #443632",
"Z  c #453A34",
"A  c #4B3C34",
"S  c #473E3A",
"D  c #493B38",
"F  c #493E38",
"G  c #4B3E38",
"H  c #4A3F39",
"J  c #4C3F39",
"K  c #563E32",
"L  c #503F35",
"P  c #563E34",
"I  c #533E33",
"U  c #5A3E30",
"Y  c #494039",
"T  c #4B403A",
"R  c #4C413B",
"E  c #4E413B",
"W  c #4B423D",
"Q  c #4D423C",
"!  c #4C433C",
"~  c #4F463F",
"^  c #4C423C",
"/  c #564134",
"(  c #584034",
")  c #5D4337",
"_  c #514338",
"`  c #544339",
"'  c #57433A",
"]  c #50423F",
"[  c #53463E",
"{  c #554138",
"}  c #5D453B",
"|  c #5E463A",
" . c #51483F",
".. c #52483F",
"X. c #56483F",
"o. c #5E483D",
"O. c #5F493E",
"+. c #5E4A3F",
"@. c #63473B",
"#. c #64483C",
"$. c #4F4440",
"%. c #4F4641",
"&. c #504742",
"*. c #534A43",
"=. c #574940",
"-. c #574A41",
";. c #544943",
":. c #564845",
">. c #554A44",
",. c #554C45",
"<. c #524944",
"1. c #534B48",
"2. c #584F4A",
"3. c #57504A",
"4. c #5A514A",
"5. c #59524C",
"6. c #5F564D",
"7. c #5B524D",
"8. c #5F5852",
"9. c #604F45",
"0. c #625147",
"q. c #61524B",
"w. c #61544C",
"e. c #695348",
"r. c #6B574E",
"t. c #635C54",
"y. c #777068",
/* pixels */
"d 4 9 C e s s f Z f j C F =.` _ [ =.*.4.4.8.u ; 6 : 6 = O = % $ ",
"y 9 9 m f 7 s m f C d Q A =.9.0.w.=.F E R 4.1.& ; - 6 : $ - = % ",
"6 a 7 C f < s C j j ] F q.X.L r 7 4 7 # . * S y - & ; 6 $ & $ $ ",
"; i 9 F p < p C Z D Z E A q r b q * q 9 9 . . y ; & - 8 @ $ $ & ",
"9 6 j F p < p C m D :.f p A A +.I m A A A 7 . - ; & - 6 & $ & & ",
"S 6 T j g < s N Z Z j + 5 m +.+.e.r.' A q 4 * . ; - - 6 ; $ $ $ ",
"t.j T f N 5 f C D Z + A A 5 v ( K 0 1 b q * * . * * - ; y * * & ",
"y.,.N g m e p Z $.+ . 7 A b > n n 3 l v q 7 * + % * & - h 6 9 8 ",
"6. .j g C 9 E ~ - . @ % M p , n n l n P m v < @ * * * $ y k j j ",
" .Y N a s Z T 4 . . . + p M 3 x n n @.| A m 5 . - * $ & 6 k f d ",
"T F g p N Z 4 . @ X X @ < q , x l c #.( L m 7 + - - @ * * j d a ",
"T F f f Z 9   . X . X @ + < 2 K n c ) | ` s < . * = $ * @ d d i ",
"F M g f f @ X X o   $ . @ < p / V n V / A f # . * & * $ $ 7 f d ",
"A Z g p g @ . O O o $ X @ + q / V n n V m g @ . * & = @ % - f f ",
"A A m e j -   O o o o O @ . < I V n V I M e + . % - = @ % @ i m ",
"J N F f y y X   o O o O @ @ + 5 x 3 n B A 4 . @ % ; * @ % @ 9 C ",
"R ~ Q h d y % $ $ @ X X X . @ # b V / b m @ @ @ O ; - @ $ @ * C ",
"<.&.Q k f 9 @ . @ @ X X X X X @ r / I v 9 . . . X = - $ $ $ * d ",
"6.4.2.%.Z 9 $ $ @ @ X @ $ @ X + 1 M B p * . .   o & ; = $ $ @ 4 ",
"S R &.Q j 6 % % * $ @ $ $ $ @ @ + r N p * @ . . o O ; - $ $ @ $ ",
"- 6 a j d 9 - $ * $ $ $ $ $ $ $ + 5 N d * . .   o o - - & * & @ ",
"  . $ y h s 9 $ $ $ % & & $ $ $ @ * s y $   X X   o = - - - * * ",
".   . 7 s i y * $ @ $ % & & $ $ $ @ 8 9 . o X O o o $ = - - * * ",
"4 $ @ y a 9 y 6 * @ X @ & & & & $ @ ; t   X     o o O = - * @ * ",
"%.S k a 9 y u 6 4 % X X $ & & = & & & $ X o o o o   X = - & & - ",
"6 d 9 * 6 9 9 y 9 4 $ X X @ & - * & & O X o o o o o X & - = & & ",
". + % 4 9 y y 7 y 9 ; & @ X X % - = & $ O o o X o o o o & - & % ",
"y @ . $ * 6 a a y y 8 6 & X X X & = - & $ O X X o o   o $ - - % ",
"S d @   + % 4 d a a y 6 - $ X X @ & - - & O X o X X o   O = - = ",
"j j y $ . + $ % 9 y y y 6 - $ . . @ & * & $ O o X X o   X & - - ",
"f f j 9 + . $ . * 4 8 y y 6 = X . . X $ & * $ X o o o o o O & = ",
"a j k h 9 @ . @ X $ ; 6 8 8 : - @ . . X & - = $ o o X o   X O = "
};
