/* XPM */
static char *_c2a7ce7469044cdf4f398aa9ede42a5fTPtvAzJ8lMjZItR[] = {
/* columns rows colors chars-per-pixel */
"18 32 45 1 ",
"  c None",
". c #3E3E44",
"X c #4D4C4A",
"o c #BDAA7B",
"O c #0280FF",
"+ c #4FB1FF",
"@ c #50B4FF",
"# c #5BB5FE",
"$ c #5ABAFF",
"% c #5EB9FF",
"& c #5FB9FF",
"* c #6FACE7",
"= c #72ADE7",
"- c #61BBFF",
"; c #63BBFF",
": c #63BCFF",
"> c #65BDFF",
", c #67BCFF",
"< c #69BDFF",
"1 c #6BBDFF",
"2 c #69BFFE",
"3 c #68BEFF",
"4 c #6BBEFF",
"5 c #6ABFFF",
"6 c #6CBEFF",
"7 c #6FBFFE",
"8 c #6CC1FF",
"9 c #6EC0FF",
"0 c #6EC2FF",
"q c #70C1FF",
"w c #73C1FF",
"e c #70C2FF",
"r c #74C3FF",
"t c #75C3FF",
"y c #72C4FF",
"u c #75C4FF",
"i c #77C6FE",
"p c #76C7FF",
"a c #79C5FF",
"s c #79C6FF",
"d c #7BC7FF",
"f c #7CC7FE",
"g c #7CC8FF",
"h c #9A9EAF",
"j c #C6C4BA",
/* pixels */
"                  ",
"                  ",
"                  ",
"        O         ",
"        $+        ",
"        i1        ",
"        y,        ",
"        y1        ",
"        e1        ",
"        06        ",
"        00        ",
"        06        ",
"        1e        ",
"        1e        ",
"        1r        ",
"        ,r        ",
"        :i        ",
"        -d        ",
"        -d        ",
"        %d        ",
"        %g        ",
"        #f        ",
"        @i        ",
"        *=        ",
"         h        ",
"         j        ",
"         o        ",
"         X        ",
"         .        ",
"                  ",
"                  ",
"                  "
};
